<svg fill="none" xmlns="http://www.w3.org/2000/svg">
<g filter="url(#filter0_f_1_380)">
<ellipse cx="267.442" cy="247.176" rx="199.442" ry="165.976" fill="#242B80" fill-opacity="0.5"/>
</g>
<g style="mix-blend-mode:overlay">
<path d="M230.261 193.524C142.971 203.732 78.2256 241.201 78.2256 285.86C78.2256 338.373 167.746 380.944 278.176 380.944C388.605 380.944 478.126 338.373 478.126 285.86C478.126 239.756 409.122 201.315 317.547 192.619" stroke="url(#paint0_angular_1_380)" stroke-width="0.715461" stroke-linecap="round"/>
</g>
<g style="mix-blend-mode:overlay">
<path d="M230.261 194.194C142.971 204.402 78.2256 241.87 78.2256 286.53C78.2256 339.043 167.746 381.614 278.176 381.614C388.605 381.614 478.126 339.043 478.126 286.53C478.126 240.425 409.122 201.985 317.547 193.289" stroke="url(#paint1_angular_1_380)" stroke-width="0.715461" stroke-linecap="round"/>
</g>
<g style="mix-blend-mode:overlay">
<path d="M324.344 195.668C412.515 205.578 478.126 243.247 478.126 288.204C478.126 340.717 388.605 383.288 278.176 383.288C167.746 383.288 78.2256 340.717 78.2256 288.204C78.2256 244.28 140.857 207.312 225.968 196.394" stroke="url(#paint2_angular_1_380)" stroke-width="0.715461" stroke-linecap="round"/>
</g>
<g style="mix-blend-mode:overlay">
<path d="M219.171 200.007C137.543 211.978 78.2256 248.136 78.2256 290.883C78.2256 343.396 167.746 385.966 278.176 385.966C388.605 385.966 478.126 343.396 478.126 290.883C478.126 246.751 414.9 209.641 329.173 198.92" stroke="url(#paint3_angular_1_380)" stroke-width="0.715461" stroke-linecap="round"/>
</g>
<g style="mix-blend-mode:overlay">
<path d="M336.507 203.592C418.482 215.463 478.126 251.702 478.126 294.566C478.126 347.079 388.605 389.65 278.176 389.65C167.746 389.65 78.2256 347.079 78.2256 294.566C78.2256 253.111 134.015 217.851 211.838 204.84" stroke="url(#paint4_angular_1_380)" stroke-width="0.715461" stroke-linecap="round"/>
</g>
<path d="M124 213.525C124 140.444 183.244 81.1999 256.325 81.1999C329.406 81.1999 388.65 140.444 388.65 213.525C388.65 286.606 329.406 345.85 256.325 345.85C183.244 345.85 124 286.606 124 213.525Z" fill="url(#paint5_linear_1_380)" fill-opacity="0.8"/>
<path d="M124.209 213.525C124.209 140.559 183.36 81.4092 256.325 81.4092C329.29 81.4092 388.441 140.559 388.441 213.525C388.441 286.49 329.29 345.641 256.325 345.641C183.36 345.641 124.209 286.49 124.209 213.525Z" stroke="black" stroke-opacity="0.15" stroke-width="0.41875"/>
<g clip-path="url(#clip0_1_380)">
<path fill-rule="evenodd" clip-rule="evenodd" d="M222.876 493.293C221.823 433.463 199.196 307.346 195.946 274.864C192.696 242.382 204.257 231.381 215.341 236.74C226.426 242.101 229.742 317.046 229.742 317.046C229.742 317.046 230.506 331.713 233.399 348.417C243.857 408.8 236.516 494.151 236.516 494.151C236.516 494.151 234.489 499.712 228.353 498.971C222.219 498.23 222.876 493.293 222.876 493.293Z" fill="#FFC999"/>
<path fill-rule="evenodd" clip-rule="evenodd" d="M157.991 490.681C159.043 430.851 181.67 304.734 184.92 272.252C188.17 239.77 176.609 228.769 165.525 234.129C154.441 239.489 151.124 314.434 151.124 314.434C151.124 314.434 150.361 329.102 147.468 345.805C137.01 406.189 144.35 491.54 144.35 491.54C144.35 491.54 146.378 497.1 152.513 496.359C158.647 495.618 157.991 490.681 157.991 490.681Z" fill="#FFC999"/>
<path fill-rule="evenodd" clip-rule="evenodd" d="M164.702 221.395L165.44 216.918C165.44 216.918 185.386 216.935 209.187 217.082C209.35 219.366 210.003 222.142 210.003 222.142C210.003 222.142 192.806 227.91 164.702 221.395Z" fill="#002AB3"/>
<path fill-rule="evenodd" clip-rule="evenodd" d="M213.063 189.381L211.388 193.662C211.388 193.662 210.928 214.808 210.928 216.483C188.074 220.182 164.932 216.193 164.932 216.193L165.044 208.366L163.183 184.357L213.063 189.381Z" fill="white"/>
<path d="M212.717 189.06C212.792 188.869 213.008 188.774 213.199 188.849C213.369 188.916 213.463 189.094 213.429 189.267L213.41 189.331L211.758 193.551L211.092 216.093C211.086 216.383 211.083 216.587 211.083 216.7C211.083 216.879 210.955 217.033 210.778 217.066C197.596 219.512 184.105 219.377 171.696 217.68C169.926 217.438 168.32 217.18 166.896 216.921L166.428 216.834C165.979 216.75 165.576 216.671 165.222 216.598L164.523 216.448C164.368 216.413 164.256 216.284 164.237 216.132L164.235 216.065L164.673 208.159C164.684 207.954 164.86 207.796 165.065 207.808C165.247 207.818 165.392 207.958 165.413 208.133L165.416 208.2L164.995 215.789L165.168 215.827C165.433 215.882 165.728 215.942 166.054 216.005L166.565 216.103C168.09 216.389 169.843 216.675 171.797 216.942C183.865 218.593 196.965 218.758 209.788 216.489L210.341 216.388L210.402 213.901L210.707 203.462L211.016 193.464L211.042 193.34L212.717 189.06Z" fill="#1F1F47"/>
<path fill-rule="evenodd" clip-rule="evenodd" d="M235.811 110.487C235.811 110.487 247.068 108.854 250.042 120.753C260.949 124.719 257.975 136.617 257.975 136.617C257.975 136.617 263.452 145.964 252.571 150.752C251.699 160.329 240.818 158.587 240.818 158.587C240.818 158.587 238.205 165.988 229.935 162.941C221.012 169.882 210.38 161.406 210.38 161.406C210.38 161.406 200.465 165.372 196.5 161.406C187.575 164.38 177.659 153.473 177.659 153.473C177.659 153.473 172.089 154.888 168.123 145.964C157.763 147.572 146.444 134.368 155.934 122.022C149.709 112.168 156.804 106.351 156.804 106.351C156.804 106.351 154.846 83.715 170.517 80.6684C178.569 68.4796 195.982 78.2742 195.982 78.2742C195.982 78.2742 207.517 75.88 211.653 85.8925C224.542 87.875 223.938 94.9602 224.93 100.91C236.464 101.563 235.811 110.487 235.811 110.487Z" fill="black"/>
<path fill-rule="evenodd" clip-rule="evenodd" d="M200.045 99.4341C191.006 101.02 188.26 94.1814 188.26 94.1814C188.26 94.1814 184.531 84.5496 183.576 90.4628C183.068 93.6058 178.209 89.4354 175.976 92.7859C174.472 95.0402 178.231 97.9458 173.346 103.957C170.516 107.439 181.678 110.218 174.792 116.637C174.792 116.637 179.688 124.472 171.278 127.028L169.418 136.151L188.801 136.121L188.177 125.615C201.236 125.615 201.874 107.666 200.045 99.4341Z" fill="#FFC999"/>
<path d="M183.383 108.989C183.609 108.762 183.976 108.762 184.202 108.989L184.321 109.097C184.375 109.144 184.444 109.201 184.526 109.267C184.81 109.491 185.143 109.716 185.521 109.926C186.803 110.639 188.267 111.009 189.878 110.852C190.197 110.821 190.48 111.055 190.511 111.373C190.542 111.692 190.308 111.975 189.99 112.006C188.126 112.187 186.433 111.76 184.957 110.939C184.209 110.523 183.677 110.102 183.383 109.808C183.156 109.582 183.156 109.215 183.383 108.989Z" fill="#F5222D"/>
<path d="M190.514 99.9278C190.743 99.9441 190.921 100.125 190.941 100.346L190.942 100.427C190.931 100.733 190.991 101.247 191.193 101.945C191.518 103.07 192.126 104.333 193.088 105.711C193.239 105.927 193.178 106.226 192.954 106.367L192.354 106.739C191.578 107.217 190.892 107.618 190.297 107.949L190.078 108.069C189.912 108.16 189.76 108.242 189.623 108.313L189.154 108.55C189.143 108.556 189.133 108.56 189.124 108.564C188.893 108.671 188.618 108.57 188.511 108.338C188.404 108.107 188.505 107.832 188.737 107.725L188.951 107.62L189.332 107.422C189.427 107.372 189.527 107.317 189.635 107.259C190.187 106.957 190.826 106.587 191.554 106.145L192.056 105.836L191.942 105.661C191.204 104.516 190.695 103.44 190.38 102.448L190.305 102.202C190.096 101.48 190.018 100.909 190.016 100.508L190.02 100.356C190.038 100.101 190.259 99.9097 190.514 99.9278Z" fill="#DD936F"/>
<path fill-rule="evenodd" clip-rule="evenodd" d="M192.373 208.43C192.373 208.43 217.148 215 228.449 207.124C240.733 198.563 225.69 165.987 221.756 157.499C218.379 150.211 211.017 145.489 204.316 144.372C197.722 143.274 192.684 142.883 192.684 142.883L191.236 137.239C191.025 136.417 190.284 135.841 189.436 135.841H169.683C168.758 135.841 167.975 136.523 167.843 137.438L167.081 142.783C167.081 142.783 150.454 142.159 142.585 149.446C135.048 156.426 137.225 172.09 143.548 186.59C149.869 201.09 155.194 212.597 165.765 213.654C185.308 215.608 215.855 198.594 215.855 198.594C215.855 198.594 221.066 195.803 225.906 196.547C224.789 189.846 221.066 185.007 210.271 187.799L171.745 195.803" fill="white"/>
<path fill-rule="evenodd" clip-rule="evenodd" d="M216.041 176.167C216.041 176.167 217.903 182.308 214.041 187.287L214.46 193.708L187.099 208.506C187.099 208.506 216.877 215.371 228.775 208.43C237.7 203.224 235.135 188.418 228.286 173.496C228.286 173.496 222.899 171.865 216.041 176.167Z" fill="#FFC999"/>
<path fill-rule="evenodd" clip-rule="evenodd" d="M162.439 177.842L170.069 194.406L200.59 186.121C209.71 183.7 219.391 187.148 221.811 194.406C217.344 194.965 208.875 196.919 208.875 196.919C208.875 196.919 179.562 215.205 164.765 214.508C154.153 214.007 150.024 201.648 143.701 187.148C143.701 187.148 147.549 178.959 162.439 177.842Z" fill="#FFC999"/>
<path d="M212.133 160.161C212.338 160.161 212.505 160.327 212.505 160.533L212.499 161.051L212.487 161.565C212.48 161.832 212.47 162.114 212.458 162.409C212.409 163.58 212.328 164.752 212.208 165.87L212.151 166.356L212.324 166.535C213.495 167.775 214.429 169.092 215.141 170.478L215.314 170.826C217.413 175.176 217.275 179.809 215.789 184.182C215.55 184.884 215.295 185.517 215.039 186.072L214.909 186.347L214.691 186.772C214.59 186.951 214.364 187.015 214.184 186.915C214.005 186.814 213.941 186.587 214.042 186.408L214.148 186.207C214.207 186.091 214.279 185.942 214.363 185.761C214.608 185.228 214.854 184.619 215.084 183.943C216.513 179.738 216.645 175.297 214.644 171.15C213.893 169.594 212.852 168.123 211.496 166.75C211.416 166.669 211.378 166.555 211.392 166.442C211.553 165.151 211.657 163.765 211.715 162.378L211.743 161.545L211.76 160.65L211.761 160.533C211.761 160.327 211.927 160.161 212.133 160.161Z" fill="#1F1F47"/>
<path d="M184.741 142.69C184.947 142.69 185.113 142.857 185.113 143.062C185.113 143.245 184.982 143.397 184.808 143.428L184.741 143.434H166.956C166.75 143.434 166.583 143.268 166.583 143.062C166.583 142.879 166.715 142.727 166.889 142.696L166.956 142.69H184.741Z" fill="#1F1F47"/>
<path d="M193.1 142.743C193.16 142.511 193.397 142.371 193.629 142.431C193.838 142.484 193.973 142.682 193.954 142.89L193.942 142.96L188.079 165.76C188 166.068 187.633 166.182 187.393 165.996L187.34 165.948L166.03 143.148C165.866 142.973 165.876 142.698 166.051 142.534C166.207 142.388 166.441 142.38 166.607 142.503L166.665 142.555L187.434 164.776L193.1 142.743Z" fill="black"/>
<path fill-rule="evenodd" clip-rule="evenodd" d="M193.829 168.19C195.801 171.517 194.911 175.688 191.844 177.508C188.775 179.328 184.688 178.105 182.716 174.78C180.744 171.454 181.632 167.282 184.701 165.462C187.77 163.643 191.856 164.864 193.829 168.19Z" fill="black"/>
<path fill-rule="evenodd" clip-rule="evenodd" d="M194.537 168.174C196.51 171.5 195.62 175.672 192.552 177.491C189.483 179.31 185.397 178.089 183.425 174.763C181.452 171.436 182.341 167.266 185.409 165.446C188.478 163.626 192.565 164.848 194.537 168.174Z" fill="black"/>
<path fill-rule="evenodd" clip-rule="evenodd" d="M193.285 168.753C194.816 171.336 194.125 174.575 191.743 175.988C189.361 177.4 186.188 176.452 184.657 173.87C183.126 171.286 183.815 168.048 186.197 166.636C188.58 165.222 191.753 166.171 193.285 168.753Z" fill="#8352FD"/>
<path d="M179.446 123.435C179.568 123.211 179.848 123.128 180.073 123.25C182.6 124.625 185.219 125.316 187.848 125.352C188.103 125.356 188.307 125.565 188.304 125.821C188.3 126.076 188.09 126.28 187.835 126.276C185.056 126.238 182.29 125.509 179.631 124.062C179.407 123.94 179.324 123.66 179.446 123.435Z" fill="#DD936F"/>
<path fill-rule="evenodd" clip-rule="evenodd" d="M183.504 190.691C183.504 190.691 172.359 181.354 165.51 181.843C158.995 182.309 155.088 187.613 156.203 190.591C156.203 190.591 154.716 193.197 157.134 194.034C156.809 195.942 159.554 195.803 159.554 195.803C159.554 195.803 159.089 197.012 161.043 197.291C162.997 197.571 165.155 193.568 170.228 194.391L183.504 190.691Z" fill="#FFC999"/>
<path d="M165.231 181.138C162.18 181.356 158.905 183.53 156.552 186.434C155.564 187.653 154.884 188.853 154.692 189.732L154.67 189.85C154.544 190.587 154.797 191.114 155.338 191.286L155.372 191.296L155.33 191.393C155.177 191.767 155.103 192.147 155.142 192.524L155.161 192.657C155.261 193.226 155.627 193.694 156.259 194.022L156.4 194.09L156.4 194.122C156.406 195.031 157.019 195.607 157.964 195.867L158.164 195.916C158.363 195.96 158.562 195.989 158.752 196.005L158.804 196.008L158.808 196.046C158.83 196.218 158.885 196.392 158.984 196.562C159.268 197.053 159.846 197.377 160.733 197.504C161.227 197.575 161.715 197.45 162.294 197.15L162.471 197.055C162.83 196.854 164.202 195.948 164.218 195.938C166.132 194.73 167.753 194.253 169.909 194.603C169.972 194.613 170.037 194.61 170.098 194.594L183.886 191.031C184.253 190.936 184.356 190.464 184.062 190.225L183.564 189.832L183.059 189.444C182.794 189.242 182.509 189.028 182.206 188.805C180.764 187.743 179.213 186.681 177.613 185.689C175.766 184.545 173.971 183.568 172.271 182.812C169.668 181.654 167.383 181.052 165.487 181.124L165.231 181.138ZM171.895 183.656C173.553 184.394 175.312 185.351 177.126 186.475C178.703 187.453 180.234 188.501 181.658 189.549L182.322 190.045L182.749 190.37L169.958 193.675L170.057 193.69C167.738 193.314 165.954 193.798 163.965 195.008L163.725 195.157C163.682 195.184 162.344 196.067 162.02 196.249C161.522 196.527 161.166 196.632 160.864 196.589C160.235 196.499 159.91 196.317 159.784 196.099C159.732 196.009 159.715 195.91 159.724 195.815L159.74 195.724C159.851 195.434 159.652 195.127 159.35 195.098L159.265 195.097C158.96 195.105 158.571 195.075 158.208 194.976C157.537 194.791 157.243 194.468 157.346 193.868C157.384 193.645 157.255 193.427 157.042 193.353C156.376 193.123 156.101 192.814 156.061 192.43C156.034 192.157 156.123 191.835 156.297 191.505C156.392 191.326 156.485 191.189 156.542 191.119C156.819 190.775 156.501 190.275 156.072 190.38L155.905 190.417C155.535 190.487 155.497 190.381 155.595 189.929C155.751 189.217 156.365 188.132 157.27 187.016C159.477 184.292 162.543 182.257 165.297 182.06C167.061 181.934 169.3 182.502 171.895 183.656Z" fill="#DD936F"/>
<path d="M165.174 184.363C165.427 184.331 165.658 184.511 165.69 184.764C165.721 185.017 165.542 185.248 165.289 185.28C163.531 185.499 161.626 186.502 159.71 188.042C158.934 188.666 158.209 189.335 157.557 190.004L157.235 190.342L156.844 190.772C156.798 190.824 156.764 190.863 156.744 190.888C156.579 191.084 156.288 191.109 156.092 190.945C155.897 190.781 155.871 190.49 156.036 190.294L156.265 190.033C156.447 189.829 156.658 189.603 156.895 189.36C157.572 188.665 158.323 187.971 159.131 187.322C161.169 185.684 163.213 184.608 165.174 184.363Z" fill="#DD936F"/>
<path d="M168.248 186.858C168.503 186.849 168.716 187.049 168.725 187.304C168.733 187.559 168.533 187.773 168.278 187.781C168.124 187.786 167.968 187.797 167.811 187.811C165.63 188.018 163.259 189.136 160.865 190.874C159.922 191.56 159.041 192.295 158.247 193.029C158.039 193.222 157.848 193.404 157.676 193.573L157.286 193.968C157.274 193.981 157.264 193.992 157.255 194.001C157.081 194.187 156.789 194.198 156.602 194.024C156.415 193.85 156.405 193.557 156.579 193.371L156.856 193.086L157.213 192.735C157.34 192.612 157.476 192.484 157.619 192.351C158.438 191.593 159.347 190.835 160.322 190.127C162.838 188.299 165.347 187.116 167.724 186.891C167.9 186.875 168.074 186.863 168.248 186.858Z" fill="#DD936F"/>
<path d="M168.233 189.796C168.488 189.78 168.708 189.973 168.724 190.228C168.74 190.482 168.547 190.702 168.292 190.718C167.503 190.768 166.523 191.107 165.403 191.694C164.614 192.107 163.776 192.632 162.91 193.243C162.111 193.807 161.332 194.413 160.606 195.019L160.244 195.324L159.678 195.822C159.49 195.994 159.198 195.982 159.025 195.794C158.853 195.606 158.865 195.313 159.053 195.141L159.312 194.909L159.643 194.623C159.76 194.522 159.884 194.418 160.014 194.309C160.758 193.688 161.556 193.068 162.378 192.488C163.274 191.855 164.146 191.309 164.975 190.875C166.199 190.234 167.292 189.856 168.233 189.796Z" fill="#DD936F"/>
<path d="M158.016 165.748C158.188 165.687 158.375 165.76 158.463 165.913L158.491 165.974L162.603 177.531C162.687 177.766 162.52 178.015 162.27 178.027L162.056 178.041C161.878 178.054 161.67 178.071 161.436 178.094C160.766 178.161 160.018 178.259 159.212 178.394C156.91 178.781 154.609 179.389 152.465 180.266C148.544 181.868 145.605 184.18 144.034 187.314C143.942 187.498 143.718 187.572 143.534 187.48C143.351 187.388 143.276 187.164 143.368 186.981C145.032 183.663 148.11 181.242 152.183 179.577C154.383 178.678 156.736 178.056 159.088 177.661C159.774 177.545 160.419 177.457 161.013 177.391L161.538 177.337L161.738 177.319L157.79 166.223C157.729 166.051 157.802 165.864 157.955 165.776L158.016 165.748Z" fill="#1F1F47"/>
<path d="M219.488 174.1C222.355 172.862 225.398 172.357 228.404 173.012C228.605 173.056 228.732 173.254 228.688 173.455C228.645 173.655 228.446 173.783 228.246 173.739C225.412 173.122 222.519 173.602 219.783 174.783C219.229 175.023 218.719 175.276 218.259 175.531L217.989 175.685C217.674 175.868 217.456 176.009 217.345 176.087C217.177 176.205 216.945 176.164 216.827 175.996C216.709 175.828 216.749 175.596 216.917 175.478L217.103 175.354C217.249 175.26 217.42 175.155 217.614 175.042C218.167 174.72 218.795 174.399 219.488 174.1Z" fill="#1F1F47"/>
<path d="M213.87 186.484C213.971 186.25 214.243 186.141 214.477 186.242C216.118 186.945 217.629 188.073 219.006 189.507C219.847 190.383 220.586 191.32 221.219 192.257C221.386 192.503 221.536 192.737 221.669 192.954L221.901 193.343C221.946 193.42 221.979 193.48 222 193.52C222.135 193.774 222.008 194.081 221.748 194.173L221.68 194.192L213.255 195.812L185.447 209.769C185.241 209.872 184.996 209.808 184.865 209.628L184.826 209.564C184.723 209.358 184.788 209.113 184.968 208.982L185.032 208.943L212.898 194.958L213.018 194.917L220.863 193.408L220.75 193.226C220.704 193.154 220.656 193.08 220.607 193.005L220.453 192.774C219.848 191.878 219.141 190.982 218.339 190.147C217.042 188.796 215.628 187.74 214.113 187.091C213.879 186.991 213.77 186.719 213.87 186.484Z" fill="#DD936F"/>
<path d="M165.027 221.171C165.104 220.943 165.35 220.82 165.577 220.897L166.045 221.044L166.456 221.167C166.745 221.252 167.064 221.343 167.411 221.438C168.902 221.847 170.609 222.257 172.504 222.639C184.526 225.063 197.324 225.246 209.392 221.725C209.623 221.658 209.864 221.79 209.931 222.021C209.999 222.251 209.866 222.492 209.636 222.559C197.414 226.125 184.481 225.941 172.333 223.491C170.418 223.105 168.691 222.691 167.181 222.277L166.673 222.135C166.431 222.066 166.204 222 165.995 221.937L165.413 221.757C165.367 221.743 165.33 221.73 165.302 221.721C165.074 221.645 164.951 221.398 165.027 221.171Z" fill="black"/>
<path d="M184.444 99.8673C184.752 99.8673 185.002 100.117 185.002 100.425C185.002 102.569 183.388 104.324 181.372 104.324C179.358 104.324 177.745 102.568 177.745 100.425C177.745 100.117 177.995 99.8673 178.303 99.8673C178.611 99.8673 178.861 100.117 178.861 100.425C178.861 101.972 179.996 103.209 181.372 103.209C182.75 103.209 183.886 101.972 183.886 100.425C183.886 100.117 184.136 99.8673 184.444 99.8673Z" fill="black"/>
<path d="M198.516 100.251C198.809 100.251 199.046 100.488 199.046 100.78C199.046 102.898 197.596 104.651 195.753 104.651C193.91 104.651 192.46 102.898 192.46 100.78C192.46 100.488 192.697 100.251 192.99 100.251C193.282 100.251 193.519 100.488 193.519 100.78C193.519 102.353 194.544 103.592 195.753 103.592C196.962 103.592 197.987 102.353 197.987 100.78C197.987 100.488 198.224 100.251 198.516 100.251Z" fill="black"/>
<path d="M178.142 93.8599C180.271 92.9612 182.526 93.0513 184.657 93.7359C185.269 93.9326 185.727 94.1314 185.989 94.2697C186.261 94.4135 186.366 94.7509 186.222 95.0234C186.078 95.2959 185.741 95.4002 185.468 95.2564L185.328 95.1883C185.285 95.1683 185.234 95.1452 185.175 95.1197C184.923 95.0105 184.635 94.9007 184.316 94.7981C182.416 94.188 180.423 94.1083 178.576 94.8878C178.239 95.0301 177.91 95.2004 177.591 95.4001C177.329 95.5634 176.985 95.484 176.822 95.2227C176.659 94.9614 176.738 94.6173 176.999 94.454C177.369 94.2228 177.75 94.0252 178.142 93.8599Z" fill="black"/>
<path fill-rule="evenodd" clip-rule="evenodd" d="M208.208 221.163C218.001 221.815 241.944 283.383 250.977 305.393C249.859 309.86 242.815 317.799 242.815 317.799C242.815 317.799 243.619 321.336 244.113 323.46C235.843 330.425 219.737 334.343 219.737 334.343V337.39C194.054 349.579 159.345 338.585 159.345 338.585C159.345 338.585 158.691 337.932 159.127 335.538C147.401 335.538 122.127 320.955 122.127 320.955L125.609 313.556L115.162 303.107C115.162 303.107 147.087 248.51 152.526 236.507C158.583 223.138 165.276 220.656 165.276 220.656C165.276 220.656 190.829 220.003 208.208 221.163Z" fill="#002AB3"/>
<path d="M153.076 255.473C153.179 255.256 153.438 255.164 153.655 255.267C153.85 255.36 153.944 255.58 153.885 255.781L153.86 255.847L123.108 320.382L123.494 320.66L123.822 320.89C124.65 321.464 125.626 322.104 126.743 322.794C129.939 324.767 133.624 326.74 137.75 328.583C144.373 331.541 151.484 333.869 158.992 335.33C159.227 335.376 159.381 335.604 159.335 335.839C159.29 336.075 159.061 336.229 158.826 336.183C151.25 334.709 144.077 332.36 137.395 329.377C133.233 327.518 129.514 325.526 126.287 323.533C125.282 322.913 124.389 322.331 123.613 321.8L123.327 321.604C123.15 321.481 122.988 321.367 122.839 321.261L122.426 320.961C122.368 320.918 122.325 320.886 122.298 320.865C122.155 320.756 122.096 320.572 122.142 320.404L122.169 320.333L153.076 255.473Z" fill="black"/>
<path d="M215.558 249.814C215.759 249.735 215.983 249.817 216.09 249.997L216.121 250.06L244.954 323.737C245.028 323.926 244.961 324.142 244.792 324.256L244.59 324.389C244.425 324.496 244.232 324.62 244.009 324.759L243.441 325.11C242.947 325.411 242.401 325.733 241.808 326.073C239.435 327.43 236.778 328.787 233.898 330.054C229.331 332.063 224.641 333.651 219.937 334.659C219.703 334.71 219.472 334.56 219.421 334.326C219.371 334.091 219.52 333.86 219.755 333.81C224.396 332.815 229.031 331.245 233.548 329.258C236.398 328.005 239.029 326.661 241.376 325.318C242.197 324.849 242.924 324.413 243.548 324.022L244.016 323.724L215.311 250.377C215.233 250.176 215.314 249.952 215.494 249.845L215.558 249.814Z" fill="black"/>
<path d="M199.303 232.817C199.538 232.768 199.768 232.918 199.817 233.153L201.386 240.706C201.944 243.406 202.538 246.295 203.163 249.349L203.733 252.14C206.444 265.43 209.155 278.986 211.712 292.137L212.348 295.415C212.818 297.844 213.279 300.238 213.729 302.597L214.705 307.728C216.811 318.856 218.649 328.94 220.165 337.752C220.201 337.961 220.081 338.165 219.881 338.235C218.426 338.749 216.95 339.22 215.454 339.65C199.865 344.129 183.242 343.985 167.589 341.056C165.189 340.607 163.025 340.126 161.133 339.645L160.497 339.48C160.294 339.427 160.101 339.375 159.916 339.324L159.158 339.112C158.983 339.061 158.857 339.023 158.781 339C158.592 338.941 158.469 338.763 158.475 338.571L158.484 338.499L173.509 264.072C173.557 263.837 173.786 263.685 174.021 263.732C174.233 263.775 174.377 263.965 174.37 264.174L174.361 264.244L159.414 338.281L160.146 338.486C160.51 338.585 160.91 338.691 161.347 338.802C163.222 339.279 165.368 339.757 167.749 340.202C183.28 343.108 199.774 343.25 215.214 338.815C216.398 338.474 217.569 338.108 218.726 337.715L219.245 337.535L218.685 334.309C217.245 326.081 215.551 316.848 213.64 306.774L213.212 304.522C212.655 301.597 212.082 298.615 211.495 295.581C209.176 283.595 206.717 271.22 204.236 258.977L201.758 246.82L198.967 233.332C198.917 233.097 199.068 232.866 199.303 232.817Z" fill="black"/>
<path d="M186.894 234.224C187.109 234.236 187.28 234.403 187.303 234.611L187.305 234.682L183.504 306.395C183.491 306.635 183.286 306.819 183.047 306.807C182.831 306.794 182.66 306.628 182.638 306.42L182.636 306.349L186.437 234.636C186.449 234.396 186.654 234.212 186.894 234.224Z" fill="black"/>
<path d="M174.167 223.312C174.242 223.084 174.488 222.96 174.716 223.034C174.921 223.102 175.042 223.307 175.01 223.514L174.993 223.583L160.629 267.331C160.554 267.559 160.309 267.683 160.081 267.608C159.875 267.541 159.754 267.335 159.787 267.128L159.803 267.06L174.167 223.312Z" fill="black"/>
</g>
<defs>
<filter id="filter0_f_1_380" x="0.392532" y="13.5924" width="534.099" height="467.168" filterUnits="userSpaceOnUse" color-interpolation-filters="sRGB">
<feFlood flood-opacity="0" result="BackgroundImageFix"/>
<feBlend mode="normal" in="SourceGraphic" in2="BackgroundImageFix" result="shape"/>
<feGaussianBlur stdDeviation="33.8037" result="effect1_foregroundBlur_1_380"/>
</filter>
<radialGradient id="paint0_angular_1_380" cx="0" cy="0" r="1" gradientUnits="userSpaceOnUse" gradientTransform="translate(281.06 294.987) scale(213.046 99.6225)">
<stop offset="0.458333" stop-color="white"/>
<stop offset="0.717799" stop-color="white" stop-opacity="0"/>
<stop offset="0.782437" stop-color="white" stop-opacity="0"/>
<stop offset="1" stop-color="white" stop-opacity="0.4"/>
</radialGradient>
<radialGradient id="paint1_angular_1_380" cx="0" cy="0" r="1" gradientUnits="userSpaceOnUse" gradientTransform="translate(281.06 295.656) scale(213.046 99.6226)">
<stop offset="0.458333" stop-color="white"/>
<stop offset="0.717799" stop-color="white" stop-opacity="0"/>
<stop offset="0.782437" stop-color="white" stop-opacity="0"/>
<stop offset="1" stop-color="white" stop-opacity="0.4"/>
</radialGradient>
<radialGradient id="paint2_angular_1_380" cx="0" cy="0" r="1" gradientUnits="userSpaceOnUse" gradientTransform="translate(281.06 297.652) scale(213.046 99.2499)">
<stop offset="0.458333" stop-color="white"/>
<stop offset="0.717799" stop-color="white" stop-opacity="0"/>
<stop offset="0.782437" stop-color="white" stop-opacity="0"/>
<stop offset="1" stop-color="white" stop-opacity="0.4"/>
</radialGradient>
<radialGradient id="paint3_angular_1_380" cx="0" cy="0" r="1" gradientUnits="userSpaceOnUse" gradientTransform="translate(281.06 300.592) scale(213.046 98.9466)">
<stop offset="0.458333" stop-color="white"/>
<stop offset="0.717799" stop-color="white" stop-opacity="0"/>
<stop offset="0.782437" stop-color="white" stop-opacity="0"/>
<stop offset="1" stop-color="white" stop-opacity="0.4"/>
</radialGradient>
<radialGradient id="paint4_angular_1_380" cx="0" cy="0" r="1" gradientUnits="userSpaceOnUse" gradientTransform="translate(281.06 304.727) scale(213.046 98.4234)">
<stop offset="0.458333" stop-color="white"/>
<stop offset="0.717799" stop-color="white" stop-opacity="0"/>
<stop offset="0.782437" stop-color="white" stop-opacity="0"/>
<stop offset="1" stop-color="white" stop-opacity="0.4"/>
</radialGradient>
<linearGradient id="paint5_linear_1_380" x1="141.169" y1="151.131" x2="329.606" y2="324.494" gradientUnits="userSpaceOnUse">
<stop stop-color="#C961DE"/>
<stop offset="1" stop-color="#2957A3"/>
</linearGradient>
<clipPath id="clip0_1_380">
<path d="M124.473 0.540932H389.123V213.266C389.123 286.347 329.879 345.591 256.798 345.591C183.717 345.591 124.473 286.347 124.473 213.266V0.540932Z" fill="white"/>
</clipPath>
</defs>
</svg>
